<?xml version="1.0" standalone="no"?>
<!DOCTYPE svg PUBLIC "-//W3C//DTD SVG 20010904//EN"
 "http://www.w3.org/TR/2001/REC-SVG-20010904/DTD/svg10.dtd">
<svg version="1.0" xmlns="http://www.w3.org/2000/svg"
 width="1412.000000pt" height="628.000000pt" viewBox="0 0 1412.000000 628.000000"
 preserveAspectRatio="xMidYMid meet">

<g transform="translate(0.000000,628.000000) scale(0.100000,-0.100000)"
fill="#000000" stroke="none">
<path d="M7195 5993 c-498 -23 -734 -40 -1105 -79 -1102 -114 -2150 -326
-3140 -635 -124 -39 -229 -74 -234 -79 -9 -9 71 -64 210 -144 l81 -46 109 26
c751 177 1690 320 2554 388 834 67 1790 74 2535 20 1294 -93 2344 -348 2993
-726 l103 -61 187 46 c258 64 452 119 452 128 0 16 -99 126 -191 213 -224 211
-610 417 -1057 565 -637 211 -1409 336 -2347 381 -185 9 -987 11 -1150 3z"/>
<path d="M1980 4926 c-233 -97 -324 -140 -550 -252 -255 -128 -440 -233 -650
-371 -139 -92 -380 -269 -380 -280 0 -3 10 1 23 9 338 221 1080 542 1682 728
77 24 142 44 144 46 2 2 -30 40 -69 86 -40 46 -74 84 -74 85 -1 1 -58 -22
-126 -51z"/>
<path d="M11965 4624 c-33 -13 -139 -52 -235 -86 -96 -33 -177 -62 -179 -64
-2 -2 22 -32 54 -66 122 -131 204 -270 241 -408 21 -78 24 -273 5 -339 -7 -23
-10 -45 -8 -48 8 -7 112 155 155 242 124 250 148 493 71 733 -12 34 -26 62
-32 61 -7 0 -39 -12 -72 -25z"/>
<path d="M7 3063 c-4 -3 -7 -368 -7 -810 l0 -803 215 0 215 0 0 300 0 300 695
0 695 0 0 -300 0 -300 200 0 200 0 0 810 0 810 -200 0 -200 0 0 -305 0 -305
-695 0 -695 0 0 305 0 305 -208 0 c-115 0 -212 -3 -215 -7z"/>
<path d="M2763 3045 c-149 -40 -263 -138 -322 -275 -36 -85 -43 -185 -39 -572
4 -342 6 -366 26 -422 30 -81 74 -147 135 -202 56 -50 94 -72 177 -100 52 -18
95 -19 770 -19 l715 0 64 23 c134 49 240 150 293 280 22 56 23 65 26 476 3
404 2 422 -18 489 -52 169 -190 295 -359 327 -33 6 -310 10 -735 9 -550 0
-691 -3 -733 -14z m1281 -389 c66 -20 110 -57 140 -118 26 -51 26 -54 26 -282
0 -204 -3 -236 -19 -272 -23 -50 -63 -90 -116 -115 -38 -17 -73 -19 -569 -19
-527 0 -529 0 -573 22 -61 30 -99 77 -118 143 -25 84 -18 465 9 515 36 69 92
114 161 131 17 4 251 7 521 8 397 1 500 -2 538 -13z"/>
<path d="M7300 2845 l0 -215 448 -2 447 -3 3 -586 2 -586 122 -6 c66 -4 163
-7 215 -7 l93 0 0 590 0 590 445 0 445 0 0 220 0 220 -1110 0 -1110 0 0 -215z"/>
<path d="M5229 3016 c-83 -34 -122 -60 -182 -126 -92 -99 -127 -198 -127 -359
0 -195 94 -354 259 -437 105 -52 131 -54 858 -54 l672 0 15 -22 c23 -32 21
-129 -1 -157 l-18 -21 -845 -3 -845 -2 -3 -197 -2 -198 864 0 c861 0 866 0
923 21 174 65 294 206 323 381 17 99 -1 241 -40 326 -36 78 -133 178 -209 216
-106 54 -130 56 -846 56 -566 1 -663 3 -680 15 -14 12 -20 31 -23 79 -4 59 -2
67 21 90 l26 26 836 0 835 0 0 195 0 195 -877 0 -878 0 -56 -24z"/>
</g>
</svg>
